<svg width="79" height="32" viewBox="0 0 79 32" fill="none" xmlns="http://www.w3.org/2000/svg">
<path d="M6 3.37891H9.22554V24.2125H6V3.37891Z" fill="#F3EFE6"/>
<path d="M38.5552 3.37891H45.9939C48.8007 3.37891 51.1021 4.60815 52.4754 6.89054C53.5212 8.64626 53.6101 9.43657 53.6101 13.7957C53.6101 18.478 53.3714 19.2981 52.4152 20.7606C51.1621 22.6914 48.9505 24.2125 45.7843 24.2125H38.5552V3.37891ZM41.7817 21.2283H45.6352C47.457 21.2283 48.7417 20.6145 49.5782 19.4146C50.2952 18.3619 50.3846 17.7756 50.3846 13.9132C50.3846 10.1677 50.2954 9.26107 49.4284 8.11958C48.4428 6.80141 47.3676 6.36386 45.6352 6.36386H41.7817V21.2283Z" fill="#F3EFE6"/>
<path d="M69.0102 19.5603H60.9434L59.3008 24.2125H55.894L63.6327 3.37891H66.3214L74.0586 24.2125H70.6529L69.0102 19.5603ZM68.0834 16.7519L65.0078 7.65029H64.9473L61.8701 16.7519H68.0834Z" fill="#F3EFE6"/>
<path d="M24.2564 7.54453C24.0726 7.72436 23.7716 7.72436 23.588 7.54453L21.6712 5.66656C21.4872 5.48672 21.4872 5.19194 21.6712 5.0121L23.588 3.13473C23.7716 2.95509 24.0726 2.95509 24.2564 3.13473L26.1734 5.0121C26.3572 5.19213 26.3572 5.48672 26.1734 5.66656L24.2564 7.54453Z" fill="#F26539"/>
<path d="M17.1753 24.2146C17.2505 24.2146 17.3179 24.2152 17.3815 24.2146H17.1753Z" fill="#F3EFE6"/>
<path d="M30.1558 5.85649C30.1629 5.85196 30.1698 5.84565 30.1774 5.84131C30.1702 5.84525 30.1629 5.85215 30.1558 5.85649Z" fill="#F3EFE6"/>
<path d="M17.5682 24.1899C17.5385 24.1982 17.5081 24.2061 17.4756 24.2089C17.5073 24.2057 17.5385 24.198 17.5682 24.1899Z" fill="#F3EFE6"/>
<path d="M14.5215 8.70691C14.5231 8.71696 14.5254 8.72702 14.5274 8.73648C14.5254 8.72702 14.5225 8.71696 14.5215 8.70691Z" fill="#F3EFE6"/>
<path d="M14.5108 21.3862C14.5096 21.4483 14.5106 21.5146 14.5108 21.588V21.3862Z" fill="#F3EFE6"/>
<path d="M30.2329 24.1815C30.2821 24.1989 30.3338 24.2093 30.3879 24.2125C30.3332 24.2111 30.2813 24.2003 30.2329 24.1815Z" fill="#F3EFE6"/>
<path d="M17.7706 24.0831C17.7339 24.1184 17.6899 24.1455 17.6431 24.1675C17.686 24.1488 17.7282 24.1194 17.7706 24.0831Z" fill="#F3EFE6"/>
<path d="M33.333 21.3564V21.6049C33.333 21.5114 33.3352 21.4316 33.333 21.3564Z" fill="#F3EFE6"/>
<path d="M30.6683 24.2146H30.4316C30.5037 24.216 30.5804 24.2146 30.6683 24.2146Z" fill="#F3EFE6"/>
<path d="M29.9321 23.7593V21.3397C29.9321 21.0893 30.1414 20.8842 30.3975 20.8842H32.8667C33.0582 20.8842 33.2234 20.9997 33.2945 21.1628C33.2723 21.1094 33.2413 21.0563 33.1868 21.0033L27.391 15.3238C27.2074 15.1438 27.2074 14.8494 27.391 14.6694L33.1423 9.03271C33.1566 9.01851 33.1638 9.00313 33.1763 8.98814C33.0936 9.06169 32.9869 9.10942 32.8671 9.10942H30.3973C30.1414 9.10942 29.9319 8.90415 29.9319 8.65431V6.23429C29.9319 6.1142 29.9822 6.00575 30.0607 5.92432C30.0518 5.9324 30.0422 5.93516 30.0333 5.94423L24.254 11.5971C24.0706 11.7769 23.7696 11.7769 23.5858 11.5971L17.8041 5.94818C17.7993 5.94325 17.7932 5.94128 17.7884 5.93654C17.8609 6.01739 17.9084 6.11953 17.909 6.23429L17.9092 8.65431C17.9094 8.90415 17.7 9.10942 17.4446 9.10942H14.9745C14.8533 9.10942 14.745 9.06091 14.6619 8.98638C14.6661 8.98992 14.6671 8.99426 14.6712 8.99821L20.4493 14.6694C20.6333 14.8494 20.6333 15.1438 20.4493 15.3238L14.6595 20.996C14.6055 21.0488 14.5737 21.1019 14.5508 21.1561C14.6235 20.9968 14.7857 20.884 14.9745 20.884H17.4436C17.6994 20.884 17.9084 21.0891 17.9088 21.3395L17.909 23.7591C17.9092 23.8839 17.857 23.9975 17.7731 24.0799C17.7808 24.0726 17.7894 24.0705 17.7975 24.0626L23.5856 18.3963C23.7694 18.2167 24.0704 18.2167 24.2538 18.3963L30.048 24.0697C30.1026 24.1231 30.1567 24.1539 30.2125 24.1762C30.0484 24.1058 29.9321 23.9453 29.9321 23.7593Z" fill="#F26539"/>
<path d="M33.2959 21.1635C33.3182 21.2165 33.33 21.2745 33.3308 21.335C33.3276 21.2749 33.3174 21.2177 33.2959 21.1635Z" fill="#F3EFE6"/>
<path d="M14.5408 21.1902C14.5272 21.233 14.5173 21.2769 14.5142 21.3235C14.5155 21.2765 14.5262 21.2324 14.5408 21.1902Z" fill="#F3EFE6"/>
<path d="M17.445 5.77954H14.976C14.7201 5.77954 14.5107 5.98461 14.5107 6.23444V8.65447C14.5107 8.9043 14.7201 9.10957 14.976 9.10957H17.446C17.7015 9.10957 17.9108 8.9043 17.9106 8.65447L17.9104 6.23444C17.9098 5.98442 17.7009 5.77954 17.445 5.77954Z" fill="#F3EFE6"/>
<path d="M32.8678 5.77954H30.3985C30.1427 5.77954 29.9331 5.98461 29.9331 6.23444V8.65447C29.9331 8.9043 30.1425 9.10957 30.3985 9.10957H32.8684C33.1242 9.10957 33.3332 8.9043 33.3332 8.65447V6.23444C33.3316 5.98442 33.1232 5.77954 32.8678 5.77954Z" fill="#F3EFE6"/>
<path d="M17.445 20.8842H14.976C14.7201 20.8842 14.5107 21.0892 14.5107 21.3396V23.7593C14.5107 24.0093 14.7201 24.2148 14.976 24.2148H17.446C17.7015 24.2148 17.9108 24.0093 17.9106 23.7593L17.9104 21.3396C17.9098 21.0892 17.7009 20.8842 17.445 20.8842Z" fill="#F3EFE6"/>
<path d="M32.8678 20.8842H30.3985C30.1427 20.8842 29.9331 21.0892 29.9331 21.3396V23.7593C29.9331 24.0093 30.1425 24.2148 30.3985 24.2148H32.8684C33.1242 24.2148 33.3332 24.0093 33.3332 23.7593V21.3396C33.3316 21.0892 33.1232 20.8842 32.8678 20.8842Z" fill="#F3EFE6"/>
<path d="M6.95266 29.8219H7.24013L8.04435 27.4352H7.65422L7.09982 29.252H7.09297L6.53857 27.4352H6.14844L6.95266 29.8219Z" fill="#F3EFE6"/>
<path d="M17.3722 29.8219H18.9293V29.4799H17.7418V28.7794H18.7548V28.4575H17.7418V27.7771H18.9293V27.4352H17.3722V29.8219Z" fill="#F3EFE6"/>
<path d="M28.3427 29.8219H29.8998V29.4799H28.7123V27.4352H28.3427V29.8219Z" fill="#F3EFE6"/>
<path d="M39.3132 29.8219H40.8703V29.4799H39.6828V27.4352H39.3132V29.8219Z" fill="#F3EFE6"/>
<path d="M50.2015 28.6285C50.2015 29.2017 50.2289 29.2721 50.3076 29.4129C50.424 29.6207 50.6875 29.842 51.0708 29.842C51.4541 29.842 51.7176 29.6207 51.8339 29.4129C51.9126 29.2721 51.94 29.2017 51.94 28.6285C51.94 28.0553 51.9126 27.9849 51.8339 27.8441C51.7176 27.6363 51.4541 27.415 51.0708 27.415C50.6875 27.415 50.424 27.6363 50.3076 27.8441C50.2289 27.9849 50.2015 28.0553 50.2015 28.6285ZM50.5711 28.6285C50.5711 28.1391 50.5985 28.0721 50.6943 27.9514C50.7696 27.8575 50.8962 27.7771 51.0708 27.7771C51.2453 27.7771 51.3719 27.8575 51.4472 27.9514C51.543 28.0721 51.5704 28.1391 51.5704 28.6285C51.5704 29.1179 51.543 29.185 51.4472 29.3056C51.3719 29.3995 51.2453 29.4799 51.0708 29.4799C50.8962 29.4799 50.7696 29.3995 50.6943 29.3056C50.5985 29.185 50.5711 29.1179 50.5711 28.6285Z" fill="#F3EFE6"/>
<path d="M61.8109 27.757H62.3893C62.5159 27.757 62.5912 27.7804 62.6596 27.8307C62.7349 27.8843 62.7828 27.9782 62.7828 28.1022C62.7828 28.3034 62.6459 28.481 62.3687 28.481H61.8109V27.757ZM61.4413 29.8219H61.8109V28.8028H62.2832L62.7862 29.8219H63.2243L62.6596 28.7626C62.9539 28.662 63.1319 28.4106 63.1319 28.1022C63.1319 27.8877 63.0258 27.7067 62.8889 27.5927C62.7589 27.4821 62.598 27.4352 62.3927 27.4352H61.4413V29.8219Z" fill="#F3EFE6"/>
<path d="M72.5989 29.8219H74.1561V29.4799H72.9685V28.7794H73.9815V28.4575H72.9685V27.7771H74.1561V27.4352H72.5989V29.8219Z" fill="#F3EFE6"/>
</svg>
