<svg width="79" height="32" viewBox="0 0 79 32" fill="none" xmlns="http://www.w3.org/2000/svg">
<path d="M6 3.37891H9.22554V24.2125H6V3.37891Z" fill="#F3EFE6"/>
<path d="M38.5549 3.37891H45.9936C48.8005 3.37891 51.1018 4.60815 52.4751 6.89054C53.5209 8.64626 53.6099 9.43657 53.6099 13.7957C53.6099 18.478 53.3712 19.2981 52.4149 20.7606C51.1618 22.6914 48.9502 24.2125 45.7841 24.2125H38.5549V3.37891ZM41.7815 21.2283H45.6349C47.4567 21.2283 48.7415 20.6145 49.5779 19.4146C50.295 18.3619 50.3844 17.7756 50.3844 13.9132C50.3844 10.1677 50.2952 9.26107 49.4281 8.11958C48.4425 6.80141 47.3674 6.36386 45.6349 6.36386H41.7815V21.2283Z" fill="#F3EFE6"/>
<path d="M69.0104 19.5603H60.9436L59.3009 24.2125H55.8942L63.6328 3.37891H66.3215L74.0588 24.2125H70.653L69.0104 19.5603ZM68.0835 16.7519L65.008 7.65029H64.9474L61.8702 16.7519H68.0835Z" fill="#F3EFE6"/>
<path d="M24.2563 7.54453C24.0725 7.72436 23.7715 7.72436 23.5879 7.54453L21.6711 5.66656C21.4871 5.48672 21.4871 5.19194 21.6711 5.0121L23.5879 3.13473C23.7715 2.95509 24.0725 2.95509 24.2563 3.13473L26.1733 5.0121C26.3571 5.19213 26.3571 5.48672 26.1733 5.66656L24.2563 7.54453Z" fill="#55C4C4"/>
<path d="M14.5108 8.46008C14.5106 8.49755 14.5106 8.53639 14.5108 8.5709V8.46008Z" fill="#F3EFE6"/>
<path d="M17.1752 24.2146C17.2504 24.2146 17.3178 24.2152 17.3814 24.2146H17.1752Z" fill="#F3EFE6"/>
<path d="M30.1556 5.85649C30.1627 5.85196 30.1696 5.84565 30.1773 5.84131C30.17 5.84525 30.1627 5.85215 30.1556 5.85649Z" fill="#F3EFE6"/>
<path d="M17.5683 24.1899C17.5387 24.1982 17.5082 24.2061 17.4757 24.2089C17.5074 24.2057 17.5387 24.198 17.5683 24.1899Z" fill="#F3EFE6"/>
<path d="M14.5216 8.70691C14.5232 8.71696 14.5256 8.72702 14.5275 8.73648C14.5256 8.72702 14.5226 8.71696 14.5216 8.70691Z" fill="#F3EFE6"/>
<path d="M14.5108 21.3862C14.5096 21.4483 14.5106 21.5146 14.5108 21.588V21.3862Z" fill="#F3EFE6"/>
<path d="M30.2328 24.1815C30.282 24.1989 30.3337 24.2093 30.3877 24.2125C30.3331 24.2111 30.2812 24.2003 30.2328 24.1815Z" fill="#F3EFE6"/>
<path d="M17.7705 24.0831C17.7337 24.1184 17.6898 24.1455 17.6429 24.1675C17.6859 24.1488 17.7281 24.1194 17.7705 24.0831Z" fill="#F3EFE6"/>
<path d="M33.3329 21.3564V21.6049C33.3329 21.5114 33.335 21.4316 33.3329 21.3564Z" fill="#F3EFE6"/>
<path d="M30.6681 24.2146H30.4314C30.5034 24.216 30.5801 24.2146 30.6681 24.2146Z" fill="#F3EFE6"/>
<path d="M29.9322 23.7593V21.3397C29.9322 21.0893 30.1415 20.8842 30.3976 20.8842H32.8668C33.0583 20.8842 33.2236 20.9997 33.2946 21.1628C33.2725 21.1094 33.2415 21.0563 33.1869 21.0033L27.3911 15.3238C27.2075 15.1438 27.2075 14.8494 27.3911 14.6694L33.1424 9.03271C33.1567 9.01851 33.164 9.00313 33.1764 8.98814C33.0937 9.06169 32.987 9.10942 32.8672 9.10942H30.3974C30.1415 9.10942 29.932 8.90415 29.932 8.65431V6.23429C29.932 6.1142 29.9823 6.00575 30.0608 5.92432C30.052 5.9324 30.0423 5.93516 30.0334 5.94423L24.2541 11.5971C24.0707 11.7769 23.7698 11.7769 23.586 11.5971L17.8042 5.94818C17.7994 5.94325 17.7934 5.94128 17.7885 5.93654C17.861 6.01739 17.9085 6.11953 17.9091 6.23429L17.9093 8.65431C17.9095 8.90415 17.7002 9.10942 17.4447 9.10942H14.9747C14.8535 9.10942 14.7452 9.06091 14.662 8.98638C14.6663 8.98992 14.6673 8.99426 14.6713 8.99821L20.4494 14.6694C20.6334 14.8494 20.6334 15.1438 20.4494 15.3238L14.6596 20.996C14.6057 21.0488 14.5739 21.1019 14.5509 21.1561C14.6236 20.9968 14.7858 20.884 14.9747 20.884H17.4437C17.6995 20.884 17.9085 21.0891 17.9089 21.3395L17.9091 23.7591C17.9093 23.8839 17.8572 23.9975 17.7732 24.0799C17.7809 24.0726 17.7895 24.0705 17.7976 24.0626L23.5858 18.3963C23.7696 18.2167 24.0705 18.2167 24.2539 18.3963L30.0481 24.0697C30.1027 24.1231 30.1568 24.1539 30.2126 24.1762C30.0485 24.1058 29.9322 23.9453 29.9322 23.7593Z" fill="#55C4C4"/>
<path d="M33.2959 21.1635C33.3182 21.2165 33.33 21.2745 33.3308 21.335C33.3276 21.2749 33.3174 21.2177 33.2959 21.1635Z" fill="#F3EFE6"/>
<path d="M14.541 21.1902C14.5274 21.233 14.5176 21.2769 14.5144 21.3235C14.5158 21.2765 14.5264 21.2324 14.541 21.1902Z" fill="#F3EFE6"/>
<path d="M17.4449 5.77954H14.9758C14.72 5.77954 14.5106 5.98461 14.5106 6.23444V8.65447C14.5106 8.9043 14.72 9.10957 14.9758 9.10957H17.4459C17.7013 9.10957 17.9107 8.9043 17.9105 8.65447L17.9103 6.23444C17.9097 5.98442 17.7007 5.77954 17.4449 5.77954Z" fill="#F3EFE6"/>
<path d="M32.8676 5.77954H30.3984C30.1425 5.77954 29.933 5.98461 29.933 6.23444V8.65447C29.933 8.9043 30.1423 9.10957 30.3984 9.10957H32.8683C33.1241 9.10957 33.3331 8.9043 33.3331 8.65447V6.23444C33.3315 5.98442 33.1231 5.77954 32.8676 5.77954Z" fill="#F3EFE6"/>
<path d="M17.4449 20.8842H14.9758C14.72 20.8842 14.5106 21.0892 14.5106 21.3396V23.7593C14.5106 24.0093 14.72 24.2148 14.9758 24.2148H17.4459C17.7013 24.2148 17.9107 24.0093 17.9105 23.7593L17.9103 21.3396C17.9097 21.0892 17.7007 20.8842 17.4449 20.8842Z" fill="#F3EFE6"/>
<path d="M32.8676 20.8842H30.3984C30.1425 20.8842 29.933 21.0892 29.933 21.3396V23.7593C29.933 24.0093 30.1423 24.2148 30.3984 24.2148H32.8683C33.1241 24.2148 33.3331 24.0093 33.3331 23.7593V21.3396C33.3315 21.0892 33.1231 20.8842 32.8676 20.8842Z" fill="#F3EFE6"/>
<path d="M6.95242 29.8219H7.23988L8.0441 27.4352H7.65397L7.09957 29.252H7.09273L6.53833 27.4352H6.14819L6.95242 29.8219Z" fill="#F3EFE6"/>
<path d="M17.3719 29.8219H18.929V29.4799H17.7415V28.7794H18.7545V28.4575H17.7415V27.7771H18.929V27.4352H17.3719V29.8219Z" fill="#F3EFE6"/>
<path d="M28.3424 29.8219H29.8995V29.4799H28.712V27.4352H28.3424V29.8219Z" fill="#F3EFE6"/>
<path d="M39.3129 29.8219H40.87V29.4799H39.6825V27.4352H39.3129V29.8219Z" fill="#F3EFE6"/>
<path d="M50.2013 28.6285C50.2013 29.2017 50.2287 29.2721 50.3074 29.4129C50.4237 29.6207 50.6872 29.842 51.0705 29.842C51.4538 29.842 51.7173 29.6207 51.8337 29.4129C51.9124 29.2721 51.9398 29.2017 51.9398 28.6285C51.9398 28.0553 51.9124 27.9849 51.8337 27.8441C51.7173 27.6363 51.4538 27.415 51.0705 27.415C50.6872 27.415 50.4237 27.6363 50.3074 27.8441C50.2287 27.9849 50.2013 28.0553 50.2013 28.6285ZM50.5709 28.6285C50.5709 28.1391 50.5983 28.0721 50.6941 27.9514C50.7694 27.8575 50.896 27.7771 51.0705 27.7771C51.2451 27.7771 51.3717 27.8575 51.447 27.9514C51.5428 28.0721 51.5702 28.1391 51.5702 28.6285C51.5702 29.1179 51.5428 29.185 51.447 29.3056C51.3717 29.3995 51.2451 29.4799 51.0705 29.4799C50.896 29.4799 50.7694 29.3995 50.6941 29.3056C50.5983 29.185 50.5709 29.1179 50.5709 28.6285Z" fill="#F3EFE6"/>
<path d="M61.8107 27.757H62.389C62.5156 27.757 62.5909 27.7804 62.6594 27.8307C62.7347 27.8843 62.7826 27.9782 62.7826 28.1022C62.7826 28.3034 62.6457 28.481 62.3685 28.481H61.8107V27.757ZM61.4411 29.8219H61.8107V28.8028H62.2829L62.786 29.8219H63.224L62.6594 28.7626C62.9537 28.662 63.1316 28.4106 63.1316 28.1022C63.1316 27.8877 63.0255 27.7067 62.8887 27.5927C62.7586 27.4821 62.5978 27.4352 62.3924 27.4352H61.4411V29.8219Z" fill="#F3EFE6"/>
<path d="M72.5987 29.8219H74.1558V29.4799H72.9683V28.7794H73.9813V28.4575H72.9683V27.7771H74.1558V27.4352H72.5987V29.8219Z" fill="#F3EFE6"/>
</svg>
