<svg width="79" height="32" viewBox="0 0 79 32" fill="none" xmlns="http://www.w3.org/2000/svg">
<path d="M6 3.37885H9.22554V24.2124H6V3.37885Z" fill="white"/>
<path d="M38.555 3.37885H45.9937C48.8005 3.37885 51.1018 4.60809 52.4752 6.89048C53.521 8.6462 53.6099 9.43651 53.6099 13.7956C53.6099 18.4779 53.3712 19.298 52.415 20.7605C51.1618 22.6913 48.9503 24.2124 45.7841 24.2124H38.555V3.37885ZM41.7815 21.2283H45.6349C47.4568 21.2283 48.7415 20.6144 49.5779 19.4146C50.295 18.3618 50.3844 17.7756 50.3844 13.9132C50.3844 10.1677 50.2952 9.26101 49.4282 8.11952C48.4426 6.80135 47.3674 6.3638 45.6349 6.3638H41.7815V21.2283Z" fill="white"/>
<path d="M69.0104 19.5603H60.9436L59.3009 24.2124H55.8942L63.6328 3.37885H66.3215L74.0588 24.2124H70.653L69.0104 19.5603ZM68.0835 16.7518L65.008 7.65023H64.9474L61.8702 16.7518H68.0835Z" fill="white"/>
<path d="M24.2563 7.54453C24.0725 7.72436 23.7716 7.72436 23.588 7.54453L21.6711 5.66656C21.4871 5.48672 21.4871 5.19194 21.6711 5.0121L23.588 3.13473C23.7716 2.95509 24.0725 2.95509 24.2563 3.13473L26.1734 5.0121C26.3571 5.19213 26.3571 5.48672 26.1734 5.66656L24.2563 7.54453Z" fill="#C02D33"/>
<path d="M14.5108 8.46002C14.5106 8.49749 14.5106 8.53633 14.5108 8.57083V8.46002Z" fill="white"/>
<path d="M17.1751 24.2145C17.2504 24.2145 17.3178 24.2151 17.3813 24.2145H17.1751Z" fill="white"/>
<path d="M30.1556 5.85643C30.1627 5.85189 30.1696 5.84559 30.1773 5.84125C30.17 5.84519 30.1627 5.85209 30.1556 5.85643Z" fill="white"/>
<path d="M17.5683 24.1899C17.5386 24.1982 17.5082 24.2061 17.4757 24.2089C17.5074 24.2057 17.5386 24.198 17.5683 24.1899Z" fill="white"/>
<path d="M14.5217 8.70691C14.5232 8.71696 14.5256 8.72702 14.5276 8.73648C14.5256 8.72702 14.5226 8.71696 14.5217 8.70691Z" fill="white"/>
<path d="M14.5108 21.3862C14.5096 21.4483 14.5106 21.5145 14.5108 21.5879V21.3862Z" fill="white"/>
<path d="M30.2327 24.1815C30.282 24.1988 30.3336 24.2093 30.3877 24.2124C30.333 24.211 30.2811 24.2002 30.2327 24.1815Z" fill="white"/>
<path d="M17.7705 24.083C17.7338 24.1183 17.6898 24.1454 17.643 24.1674C17.686 24.1487 17.7281 24.1193 17.7705 24.083Z" fill="white"/>
<path d="M33.3329 21.3564V21.6049C33.3329 21.5114 33.335 21.4315 33.3329 21.3564Z" fill="white"/>
<path d="M30.6681 24.2145H30.4314C30.5034 24.2159 30.5801 24.2145 30.6681 24.2145Z" fill="white"/>
<path d="M29.9321 23.7593V21.3396C29.9321 21.0892 30.1415 20.8841 30.3976 20.8841H32.8668C33.0582 20.8841 33.2235 20.9997 33.2946 21.1628C33.2724 21.1093 33.2414 21.0563 33.1869 21.0032L27.391 15.3238C27.2074 15.1437 27.2074 14.8493 27.391 14.6693L33.1424 9.03265C33.1567 9.01845 33.1639 9.00307 33.1764 8.98808C33.0937 9.06163 32.987 9.10935 32.8672 9.10935H30.3974C30.1415 9.10935 29.9319 8.90408 29.9319 8.65425V6.23423C29.9319 6.11414 29.9823 6.00569 30.0608 5.92426C30.0519 5.93234 30.0423 5.9351 30.0334 5.94417L24.2541 11.597C24.0707 11.7768 23.7697 11.7768 23.5859 11.597L17.8042 5.94811C17.7993 5.94319 17.7933 5.94122 17.7885 5.93648C17.8609 6.01733 17.9085 6.11947 17.9091 6.23423L17.9093 8.65425C17.9095 8.90408 17.7001 9.10935 17.4446 9.10935H14.9746C14.8534 9.10935 14.7451 9.06085 14.662 8.98631C14.6662 8.98986 14.6672 8.9942 14.6712 8.99814L20.4494 14.6693C20.6334 14.8493 20.6334 15.1437 20.4494 15.3238L14.6596 20.9959C14.6056 21.0488 14.5738 21.1018 14.5509 21.1561C14.6235 20.9967 14.7858 20.8839 14.9746 20.8839H17.4436C17.6995 20.8839 17.9085 21.089 17.9089 21.3394L17.9091 23.7591C17.9093 23.8839 17.8571 23.9975 17.7732 24.0799C17.7808 24.0726 17.7895 24.0704 17.7975 24.0625L23.5857 18.3963C23.7695 18.2166 24.0705 18.2166 24.2539 18.3963L30.0481 24.0696C30.1026 24.1231 30.1568 24.1538 30.2126 24.1761C30.0485 24.1057 29.9321 23.9452 29.9321 23.7593Z" fill="#C02D33"/>
<path d="M33.2958 21.1633C33.3181 21.2164 33.33 21.2744 33.3307 21.3349C33.3276 21.2747 33.3173 21.2176 33.2958 21.1633Z" fill="white"/>
<path d="M14.541 21.1902C14.5274 21.233 14.5175 21.2769 14.5144 21.3235C14.5158 21.2765 14.5264 21.2324 14.541 21.1902Z" fill="white"/>
<path d="M17.4449 5.77954H14.9758C14.72 5.77954 14.5106 5.98461 14.5106 6.23444V8.65447C14.5106 8.9043 14.72 9.10957 14.9758 9.10957H17.4459C17.7013 9.10957 17.9107 8.9043 17.9105 8.65447L17.9103 6.23444C17.9097 5.98442 17.7007 5.77954 17.4449 5.77954Z" fill="white"/>
<path d="M32.8676 5.77954H30.3984C30.1425 5.77954 29.933 5.98461 29.933 6.23444V8.65447C29.933 8.9043 30.1423 9.10957 30.3984 9.10957H32.8683C33.1241 9.10957 33.3331 8.9043 33.3331 8.65447V6.23444C33.3315 5.98442 33.1231 5.77954 32.8676 5.77954Z" fill="white"/>
<path d="M17.4449 20.8841H14.9758C14.72 20.8841 14.5106 21.0892 14.5106 21.3396V23.7592C14.5106 24.0093 14.72 24.2147 14.9758 24.2147H17.4459C17.7013 24.2147 17.9107 24.0093 17.9105 23.7592L17.9103 21.3396C17.9097 21.0892 17.7007 20.8841 17.4449 20.8841Z" fill="white"/>
<path d="M32.8676 20.8841H30.3984C30.1425 20.8841 29.933 21.0892 29.933 21.3396V23.7592C29.933 24.0093 30.1423 24.2147 30.3984 24.2147H32.8683C33.1241 24.2147 33.3331 24.0093 33.3331 23.7592V21.3396C33.3315 21.0892 33.1231 20.8841 32.8676 20.8841Z" fill="white"/>
<path d="M6.95242 29.8219H7.23988L8.0441 27.4352H7.65397L7.09957 29.252H7.09273L6.53833 27.4352H6.14819L6.95242 29.8219Z" fill="white"/>
<path d="M17.3719 29.8219H18.929V29.48H17.7415V28.7794H18.7545V28.4576H17.7415V27.7771H18.929V27.4352H17.3719V29.8219Z" fill="white"/>
<path d="M28.3424 29.8219H29.8995V29.48H28.712V27.4352H28.3424V29.8219Z" fill="white"/>
<path d="M39.3129 29.8219H40.87V29.48H39.6825V27.4352H39.3129V29.8219Z" fill="white"/>
<path d="M50.2013 28.6285C50.2013 29.2018 50.2287 29.2721 50.3074 29.4129C50.4237 29.6208 50.6872 29.842 51.0705 29.842C51.4538 29.842 51.7173 29.6208 51.8337 29.4129C51.9124 29.2721 51.9398 29.2018 51.9398 28.6285C51.9398 28.0553 51.9124 27.9849 51.8337 27.8441C51.7173 27.6363 51.4538 27.4151 51.0705 27.4151C50.6872 27.4151 50.4237 27.6363 50.3074 27.8441C50.2287 27.9849 50.2013 28.0553 50.2013 28.6285ZM50.5709 28.6285C50.5709 28.1391 50.5983 28.0721 50.6941 27.9514C50.7694 27.8575 50.896 27.7771 51.0705 27.7771C51.2451 27.7771 51.3717 27.8575 51.447 27.9514C51.5428 28.0721 51.5702 28.1391 51.5702 28.6285C51.5702 29.1179 51.5428 29.185 51.447 29.3057C51.3717 29.3995 51.2451 29.48 51.0705 29.48C50.896 29.48 50.7694 29.3995 50.6941 29.3057C50.5983 29.185 50.5709 29.1179 50.5709 28.6285Z" fill="white"/>
<path d="M61.8107 27.757H62.389C62.5156 27.757 62.5909 27.7805 62.6594 27.8307C62.7347 27.8844 62.7826 27.9782 62.7826 28.1023C62.7826 28.3034 62.6457 28.481 62.3685 28.481H61.8107V27.757ZM61.4411 29.8219H61.8107V28.8028H62.2829L62.786 29.8219H63.224L62.6594 28.7626C62.9537 28.6621 63.1316 28.4107 63.1316 28.1023C63.1316 27.8877 63.0255 27.7067 62.8887 27.5927C62.7586 27.4821 62.5978 27.4352 62.3924 27.4352H61.4411V29.8219Z" fill="white"/>
<path d="M72.5987 29.8219H74.1558V29.48H72.9683V28.7794H73.9813V28.4576H72.9683V27.7771H74.1558V27.4352H72.5987V29.8219Z" fill="white"/>
</svg>
